<svg width="420" height="120" viewBox="0 0 420 120" fill="none" xmlns="http://www.w3.org/2000/svg">
  <rect width="420" height="120" rx="28" fill="white"/>
  <rect x="22" y="22" width="76" height="76" rx="24" fill="#16A34A"/>
  <path d="M60 35C45.6 35 34 46.6 34 61C34 75.4 45.6 87 60 87C65.4 87 70.4 85.4 74.6 82.6L84 92L91 85L81.8 75.8C84.4 71.6 86 66.6 86 61C86 46.6 74.4 35 60 35ZM60 47C67.8 47 74 53.2 74 61C74 68.8 67.8 75 60 75C52.2 75 46 68.8 46 61C46 53.2 52.2 47 60 47Z" fill="white"/>
  <text x="118" y="57" font-family="Arial, Helvetica, sans-serif" font-size="34" font-weight="800" fill="#0F172A">QuitaZAP</text>
  <text x="119" y="84" font-family="Arial, Helvetica, sans-serif" font-size="17" font-weight="500" fill="#64748B">organização de dívidas pelo WhatsApp</text>
</svg>